/* XPM */
static char * close_active_xpm[] = {
"14 27 43 1",
" 	c None",
".	c #ECF0F1",
"+	c #ECF2F3",
"@	c #EBF5F7",
"#	c #EBF8FA",
"$	c #ECF1F2",
"%	c #ECF0F0",
"&	c #EFD0CD",
"*	c #F7968D",
"=	c #FD6E61",
"-	c #EEDCDC",
";	c #FA8379",
">	c #FF594B",
",	c #FF5F51",
"'	c #FF6052",
")	c #EED9D8",
"!	c #FE6457",
"~	c #FF5C4E",
"{	c #EDEBEB",
"]	c #FB7E73",
"^	c #F1C6C2",
"/	c #FF5849",
"(	c #F98B81",
"_	c #FF5E50",
":	c #FE6659",
"<	c #FD6D60",
"[	c #F69C94",
"}	c #FF5D4F",
"|	c #EFD6D4",
"1	c #ECEFF0",
"2	c #F7948C",
"3	c #ECE9EA",
"4	c #FA7C71",
"5	c #FF6254",
"6	c #ECEDEE",
"7	c #F6A19A",
"8	c #FC7569",
"9	c #FE695C",
"0	c #EDE1E0",
"a	c #F3B7B2",
"b	c #F79B93",
"c	c #ECF2F4",
"d	c #EBF6F8",
"..............",
"..............",
"..............",
"..............",
"..............",
"..............",
"..............",
"....+@##@+....",
"..$%&*==*&%$..",
"..-;>,'',>;-..",
".)!~''''''~!).",
"{]~''''''''~]{",
"^/''''''''''/^",
"(_''''''''''_(",
":'''''''''''':",
"<,'''''''''',<",
"[}''''''''''}[",
"|>''''''''''>|",
"12}''''''''}21",
".345_,'',_543.",
".$6789__9876$.",
"..$@0abba0@$..",
"....cd##dc....",
"..............",
"..............",
"..............",
".............."};
