/* XPM */
static char * close_inactive_xpm[] = {
"14 27 26 1",
" 	c None",
".	c #ECF0F1",
"+	c #EDF1F2",
"@	c #E8EBEB",
"#	c #E1E3E3",
"$	c #DCDDDD",
"%	c #E9EDEE",
"&	c #DFE0E0",
"*	c #DADADA",
"=	c #DBDBDB",
"-	c #E9ECED",
";	c #DBDADA",
">	c #EBEFF0",
",	c #DEDFDF",
"'	c #E7E9EA",
")	c #E0E1E1",
"!	c #DBDCDC",
"~	c #E2E4E4",
"{	c #E8EBEC",
"]	c #E1E2E2",
"^	c #E2E4E5",
"/	c #DDDEDE",
"(	c #DCDCDC",
"_	c #EAEDEE",
":	c #E5E8E8",
"<	c #E2E3E4",
"..............",
"..............",
"..............",
"..............",
"..............",
"..............",
"..............",
".....++++.....",
"....@#$$#@....",
"..%&*====*&%..",
".-=;======;=-.",
">,;========;,>",
"'*==========*'",
")============)",
"!============!",
"$============$",
"~============~",
"{*==========*{",
".]==========].",
".>,========,>.",
"..>^/(==(/^>..",
"...+_:<<:_+...",
".....++++.....",
"..............",
"..............",
"..............",
".............."};
