/* XPM */
static char * close_prelight_xpm[] = {
"14 27 40 1",
" 	c None",
".	c #ECF0F1",
"+	c #ECF1F2",
"@	c #EBF4F5",
"#	c #EBF5F7",
"$	c #EFDBDA",
"%	c #F7B5B0",
"&	c #FD9C94",
"*	c #EEE4E3",
"=	c #FAA9A3",
"-	c #FF8F85",
";	c #FF9289",
">	c #FF938A",
",	c #EEE1E0",
"'	c #FE968D",
")	c #FF9187",
"!	c #EDECED",
"~	c #FBA69F",
"{	c #F1D5D3",
"]	c #FF8E84",
"^	c #F9AFA9",
"/	c #FE978E",
"(	c #FD9B94",
"_	c #F6BAB5",
":	c #FF9188",
"<	c #EFDFDF",
"[	c #ECEFF0",
"}	c #F7B5AF",
"|	c #ECECEC",
"1	c #FAA59D",
"2	c #FF948B",
"3	c #ECEEEE",
"4	c #F6BDB9",
"5	c #FCA099",
"6	c #FE9990",
"7	c #EBF3F5",
"8	c #EDE6E6",
"9	c #F3CBC8",
"0	c #F7B9B4",
"a	c #ECF1F3",
"..............",
"..............",
"..............",
"..............",
"..............",
"..............",
"..............",
"....+@##@+....",
"....$%&&%$....",
"..*=-;>>;-=*..",
".,')>>>>>>)',.",
"!~)>>>>>>>>)~!",
"{]>>>>>>>>>>]{",
"^;>>>>>>>>>>;^",
"/>>>>>>>>>>>>/",
"(>>>>>>>>>>>>(",
"_:>>>>>>>>>>:_",
"<->>>>>>>>>>-<",
"[}:>>>>>>>>:}[",
".|12;>>>>;21|.",
".+3456;;6543+.",
"..+78900987+..",
"....a@##@a....",
"..............",
"..............",
"..............",
".............."};
