/* XPM */
static char * hide_pressed_xpm[] = {
"14 27 43 1",
" 	c None",
".	c #ECF0F1",
"+	c #ECF0F3",
"@	c #EBF1F8",
"#	c #EBF2FA",
"$	c #ECF0F2",
"%	c #EFE9CB",
"&	c #F7DB86",
"*	c #FDD256",
"=	c #EEEBDA",
"-	c #FAD670",
";	c #FFCE3E",
">	c #FFCF45",
",	c #FFCF46",
"'	c #EEEAD5",
")	c #FED04C",
"!	c #FFCE41",
"~	c #EDEFEB",
"{	c #FBD56A",
"]	c #F1E6BF",
"^	c #FFCD3C",
"/	c #F9D979",
"(	c #FFCF44",
"_	c #FED04E",
":	c #F6DD8D",
"<	c #FFCE43",
"[	c #EFEAD3",
"}	c #ECF0F0",
"|	c #F7DA85",
"1	c #FFCE42",
"2	c #ECEEE9",
"3	c #FAD567",
"4	c #FFCF48",
"5	c #ECEEED",
"6	c #F6DD94",
"7	c #FCD45F",
"8	c #FED151",
"9	c #EBF1F7",
"0	c #EDEDDF",
"a	c #F3E3AE",
"b	c #F7DC8C",
"c	c #ECF1F4",
"d	c #EBF2FB",
"..............",
"..............",
"..............",
"..............",
"..............",
"..............",
"..............",
"....+@##@+....",
"..$.%&**&%.$..",
"..=-;>,,>;-=..",
".')!,,,,,,!)'.",
"~{!,,,,,,,,!{~",
"]^,,,,,,,,,,^]",
"/(,,,,,,,,,,(/",
"_,,,,,,,,,,,,_",
"*>,,,,,,,,,,>*",
":<,,,,,,,,,,<:",
"[;,,,,,,,,,,;[",
"}|1,,,,,,,,1|}",
".234(>,,>(432.",
".$5678((8765$.",
"..+90abba09+..",
"....c@dd@c....",
"..............",
"..............",
"..............",
".............."};
