/* XPM */
static char * maximize_active_xpm[] = {
"14 27 47 1",
" 	c None",
".	c #ECF0F1",
"+	c #EFF1F4",
"@	c #F4F1F8",
"#	c #F8F2FB",
"$	c #EDF0F2",
"%	c #EBF0F0",
"&	c #BCE8C7",
"*	c #64DA7B",
"=	c #27D046",
"-	c #CFEAD8",
";	c #47D562",
">	c #08CB2B",
",	c #10CD32",
"'	c #12CD34",
")	c #C9EAD3",
"!	c #19CE3A",
"~	c #0CCC2F",
"{	c #E4EEEA",
"]	c #3FD45B",
"^	c #ADE5BA",
"/	c #05CB29",
"(	c #53D76D",
"_	c #0FCD32",
":	c #1CCE3C",
"<	c #11CD33",
"[	c #6DDC83",
"}	c #0ECC31",
"|	c #C5E9CF",
"1	c #EAF0F0",
"2	c #61D979",
"3	c #0DCC30",
"4	c #E2EEE9",
"5	c #3CD359",
"6	c #15CD37",
"7	c #EEF0F2",
"8	c #E7EFED",
"9	c #75DC8A",
"0	c #31D24F",
"a	c #20CF40",
"b	c #10CC32",
"c	c #EEF0F3",
"d	c #D6ECDD",
"e	c #96E2A7",
"f	c #6BDB81",
"g	c #F5F1F9",
"h	c #F9F2FC",
"..............",
"..............",
"..............",
"..............",
"..............",
"..............",
"..............",
"....+@##@+....",
"..$%&*==*&%$..",
"..-;>,'',>;-..",
".)!~''''''~!).",
"{]~''''''''~]{",
"^/''''''''''/^",
"(_''''''''''_(",
":'''''''''''':",
"=<''''''''''<=",
"[}''''''''''}[",
"|>''''''''''>|",
"123''''''''321",
".456_<''<_654.",
".7890abba0987.",
"..c@deffed@c..",
"....+ghhg+....",
"..............",
"..............",
"..............",
".............."};
